# Blender v2.78 (sub 0) OBJ File: ''
# www.blender.org
mtllib cubo.mtl
g Cube
v 50.169998 -50.169998 -50.169994
v 50.169998 -50.169998 50.169998
v -50.170006 -50.169998 50.169991
v -50.169979 -50.169998 -50.170017
v 50.170021 50.169998 -50.169971
v 50.169964 50.169998 50.170029
v -50.170017 50.169998 50.169979
v -50.169994 50.169998 -50.169998
vn 0.0000 -1.0000 0.0000
vn 0.0000 1.0000 0.0000
vn 1.0000 -0.0000 0.0000
vn -0.0000 -0.0000 1.0000
vn -1.0000 -0.0000 -0.0000
vn 0.0000 0.0000 -1.0000
usemtl Material
s off
f 1//1 3//1 4//1
f 5//2 7//2 6//2
f 5//3 2//3 1//3
f 6//4 3//4 2//4
f 7//5 4//5 3//5
f 1//6 8//6 5//6
f 1//1 2//1 3//1
f 5//2 8//2 7//2
f 5//3 6//3 2//3
f 6//4 7//4 3//4
f 7//5 8//5 4//5
f 1//6 4//6 8//6
